<svg width="138" height="58" viewBox="0 0 138 58" fill="none" xmlns="http://www.w3.org/2000/svg">
<path d="M77.7336 39.536C77.5416 39.696 77.1816 39.912 76.6536 40.184C76.1416 40.456 75.5096 40.696 74.7576 40.904C74.0056 41.112 73.1736 41.208 72.2616 41.192C70.8696 41.16 69.6216 40.912 68.5176 40.448C67.4296 39.968 66.5016 39.32 65.7336 38.504C64.9816 37.688 64.4056 36.752 64.0056 35.696C63.6056 34.64 63.4056 33.512 63.4056 32.312C63.4056 30.968 63.6056 29.736 64.0056 28.616C64.4216 27.496 65.0056 26.528 65.7576 25.712C66.5256 24.896 67.4376 24.264 68.4936 23.816C69.5496 23.368 70.7176 23.144 71.9976 23.144C73.1816 23.144 74.2296 23.304 75.1416 23.624C76.0536 23.944 76.7976 24.288 77.3736 24.656L76.0056 27.944C75.6056 27.64 75.0696 27.328 74.3976 27.008C73.7416 26.672 72.9816 26.504 72.1176 26.504C71.4456 26.504 70.7976 26.648 70.1736 26.936C69.5656 27.208 69.0216 27.6 68.5416 28.112C68.0776 28.624 67.7096 29.224 67.4376 29.912C67.1656 30.584 67.0296 31.32 67.0296 32.12C67.0296 32.968 67.1496 33.744 67.3896 34.448C67.6456 35.152 68.0056 35.76 68.4696 36.272C68.9336 36.768 69.4856 37.152 70.1256 37.424C70.7816 37.696 71.5176 37.832 72.3336 37.832C73.2776 37.832 74.0856 37.68 74.7576 37.376C75.4296 37.072 75.9416 36.752 76.2936 36.416L77.7336 39.536ZM79.852 35.624C79.852 34.552 80.1 33.592 80.596 32.744C81.108 31.896 81.82 31.232 82.732 30.752C83.644 30.256 84.692 30.008 85.876 30.008C87.076 30.008 88.116 30.256 88.996 30.752C89.876 31.232 90.548 31.896 91.012 32.744C91.492 33.592 91.732 34.552 91.732 35.624C91.732 36.696 91.492 37.664 91.012 38.528C90.548 39.376 89.876 40.048 88.996 40.544C88.116 41.04 87.06 41.288 85.828 41.288C84.676 41.288 83.644 41.064 82.732 40.616C81.836 40.168 81.132 39.52 80.62 38.672C80.108 37.824 79.852 36.808 79.852 35.624ZM83.236 35.648C83.236 36.192 83.348 36.688 83.572 37.136C83.796 37.568 84.1 37.912 84.484 38.168C84.868 38.424 85.3 38.552 85.78 38.552C86.308 38.552 86.764 38.424 87.148 38.168C87.532 37.912 87.828 37.568 88.036 37.136C88.244 36.688 88.348 36.192 88.348 35.648C88.348 35.088 88.244 34.592 88.036 34.16C87.828 33.728 87.532 33.384 87.148 33.128C86.764 32.872 86.308 32.744 85.78 32.744C85.3 32.744 84.868 32.872 84.484 33.128C84.1 33.384 83.796 33.728 83.572 34.16C83.348 34.592 83.236 35.088 83.236 35.648ZM95.3869 41V33.44H93.6109V30.464H95.3869V26.816C95.3869 25.44 95.7789 24.32 96.5629 23.456C97.3629 22.576 98.5149 22.136 100.019 22.136C100.467 22.136 100.963 22.208 101.507 22.352C102.067 22.48 102.555 22.696 102.971 23L101.555 25.424C101.395 25.216 101.203 25.08 100.979 25.016C100.771 24.936 100.571 24.896 100.379 24.896C99.8989 24.896 99.5069 25.056 99.2029 25.376C98.8989 25.696 98.7469 26.208 98.7469 26.912V30.464H101.915V33.44H98.7469V41H95.3869ZM103.139 41V33.44H101.363V30.464H103.139V26.816C103.139 25.44 103.531 24.32 104.315 23.456C105.115 22.576 106.267 22.136 107.771 22.136C108.219 22.136 108.715 22.208 109.259 22.352C109.819 22.48 110.307 22.696 110.723 23L109.307 25.424C109.147 25.216 108.955 25.08 108.731 25.016C108.523 24.936 108.323 24.896 108.131 24.896C107.651 24.896 107.259 25.056 106.955 25.376C106.651 25.696 106.499 26.208 106.499 26.912V30.464H109.667V33.44H106.499V41H103.139ZM117.492 41.288C116.212 41.288 115.124 41.048 114.228 40.568C113.348 40.088 112.676 39.424 112.212 38.576C111.748 37.728 111.516 36.752 111.516 35.648C111.516 34.592 111.788 33.64 112.332 32.792C112.876 31.944 113.604 31.272 114.516 30.776C115.428 30.264 116.444 30.008 117.564 30.008C119.068 30.008 120.3 30.448 121.26 31.328C122.236 32.192 122.868 33.448 123.156 35.096L114.996 37.688L114.252 35.864L120.156 33.872L119.46 34.184C119.332 33.768 119.1 33.408 118.764 33.104C118.444 32.784 117.956 32.624 117.3 32.624C116.804 32.624 116.364 32.744 115.98 32.984C115.612 33.208 115.324 33.536 115.116 33.968C114.924 34.384 114.828 34.88 114.828 35.456C114.828 36.112 114.948 36.664 115.188 37.112C115.428 37.544 115.756 37.872 116.172 38.096C116.588 38.32 117.052 38.432 117.564 38.432C117.932 38.432 118.284 38.368 118.62 38.24C118.972 38.112 119.316 37.944 119.652 37.736L121.14 40.232C120.58 40.552 119.972 40.808 119.316 41C118.676 41.192 118.068 41.288 117.492 41.288ZM130.758 41.288C129.478 41.288 128.39 41.048 127.494 40.568C126.614 40.088 125.942 39.424 125.478 38.576C125.014 37.728 124.782 36.752 124.782 35.648C124.782 34.592 125.054 33.64 125.598 32.792C126.142 31.944 126.87 31.272 127.782 30.776C128.694 30.264 129.71 30.008 130.83 30.008C132.334 30.008 133.566 30.448 134.526 31.328C135.502 32.192 136.134 33.448 136.422 35.096L128.262 37.688L127.518 35.864L133.422 33.872L132.726 34.184C132.598 33.768 132.366 33.408 132.03 33.104C131.71 32.784 131.222 32.624 130.566 32.624C130.07 32.624 129.63 32.744 129.246 32.984C128.878 33.208 128.59 33.536 128.382 33.968C128.19 34.384 128.094 34.88 128.094 35.456C128.094 36.112 128.214 36.664 128.454 37.112C128.694 37.544 129.022 37.872 129.438 38.096C129.854 38.32 130.318 38.432 130.83 38.432C131.198 38.432 131.55 38.368 131.886 38.24C132.238 38.112 132.582 37.944 132.918 37.736L134.406 40.232C133.846 40.552 133.238 40.808 132.582 41C131.942 41.192 131.334 41.288 130.758 41.288Z" fill="#FF4B32"/>
<g clip-path="url(#clip0_112_409)" filter="url(#filter0_d_112_409)">
<path d="M50.0129 41.8508H42.916C42.51 41.8508 42.181 42.1787 42.181 42.5832C42.181 42.9877 42.51 43.3156 42.916 43.3156H49.278V43.7288L38.5761 45.7541H17.1239L6.42204 43.7288V43.3156H9.3443C9.34548 43.3156 9.34665 43.3158 9.34773 43.3158C9.34861 43.3158 9.34959 43.3156 9.35047 43.3156H11.9985C11.9994 43.3156 12.0002 43.3158 12.0011 43.3158C12.0025 43.3158 12.0039 43.3156 12.0053 43.3156H20.8169C20.8174 43.3156 20.8179 43.3157 20.8184 43.3157C20.8189 43.3157 20.8193 43.3156 20.8198 43.3156H23.4456C23.4464 43.3156 23.4472 43.3158 23.448 43.3158C23.4488 43.3158 23.4497 43.3156 23.4504 43.3156H32.2496C32.2504 43.3156 32.2512 43.3158 32.252 43.3158C32.2528 43.3158 32.2536 43.3156 32.2543 43.3156H40.1867C40.5927 43.3156 40.9217 42.9877 40.9217 42.5832C40.9217 42.1787 40.5927 41.8508 40.1867 41.8508H35.446C36.3238 41.2949 37.1429 40.6439 37.8794 39.9105C38.9423 38.8508 39.815 37.6521 40.482 36.3562C41.4114 36.7335 42.3955 36.925 43.4157 36.925C47.7202 36.925 51.2221 33.4347 51.2221 29.1447C51.2221 24.8551 47.7202 21.3654 43.4157 21.3654C42.9492 21.3654 42.4871 21.4075 42.033 21.4886V21.0696C42.033 20.1321 41.2676 19.3694 40.3269 19.3694H36.8509C36.4449 19.3694 36.1159 19.6973 36.1159 20.1018C36.1159 20.5063 36.4449 20.8342 36.8509 20.8342H40.3269C40.4571 20.8342 40.563 20.9398 40.563 21.0696V22.3147H15.1358V21.0696C15.1358 20.9398 15.2417 20.8342 15.372 20.8342H34.1207C34.5267 20.8342 34.8557 20.5063 34.8557 20.1018C34.8557 19.6973 34.5267 19.3694 34.1207 19.3694H15.372C14.4312 19.3694 13.6659 20.1321 13.6659 21.0696V29.9153C13.6659 31.02 13.7955 32.1152 14.0481 33.179C12.8519 32.8235 11.4264 33.1028 10.1258 33.9896C9.79077 34.218 9.70493 34.6738 9.93414 35.0077C10.1635 35.3415 10.6209 35.4269 10.9559 35.1986C11.8082 34.6175 12.7027 34.3893 13.4424 34.537L10.7653 38.5284C10.5398 38.8647 10.6305 39.3196 10.9679 39.5443C11.0933 39.6279 11.2353 39.6679 11.3757 39.6679C11.6129 39.6679 11.8458 39.5537 11.9874 39.3425L14.6652 35.3497C14.943 35.7605 15.0951 36.2981 15.1023 36.9247C15.1023 36.925 15.1023 36.9252 15.1023 36.9255C15.1023 36.9268 15.1024 36.9282 15.1024 36.9296C15.1123 37.8971 14.773 38.9437 14.1473 39.8765C13.7906 40.4085 13.3688 40.8646 12.8912 41.2342C12.5601 41.4926 12.2122 41.6993 11.8558 41.8508H9.53392C9.50737 41.8349 9.48091 41.819 9.45455 41.8012C8.23086 40.9868 8.15344 38.8804 9.27825 37.0059C9.48659 36.6588 9.37311 36.209 9.02473 36.0013C8.67655 35.7939 8.22508 35.9068 8.01674 36.2541C7.2997 37.4489 6.94946 38.7802 7.0306 40.0027C7.07666 40.6964 7.25883 41.3215 7.5587 41.8507H5.68706C5.28106 41.8507 4.95209 42.1786 4.95209 42.5831V44.335C4.95209 44.6869 5.20315 44.9889 5.54997 45.0546L16.358 47.1V49.2676C16.358 49.6721 16.687 50 17.093 50H38.606C39.012 50 39.341 49.6721 39.341 49.2676V47.1002L50.15 45.0546C50.4968 44.9889 50.7479 44.6868 50.7479 44.335V42.5831C50.7479 42.1787 50.4188 41.8508 50.0129 41.8508ZM42.0329 29.9151V26.4499H42.033C42.4589 26.232 42.9298 26.1164 43.4157 26.1164C45.0913 26.1164 46.4546 27.4749 46.4546 29.1447C46.4546 30.8145 45.0913 32.173 43.4157 32.173C42.8817 32.173 42.3677 32.0348 41.9112 31.7743C41.9913 31.1628 42.0329 30.5422 42.0329 29.9151ZM41.6321 33.272C42.1908 33.5125 42.7945 33.638 43.4157 33.638C45.9019 33.638 47.9245 31.6223 47.9245 29.1448C47.9245 26.6672 45.9019 24.6516 43.4157 24.6516C42.9414 24.6516 42.4761 24.7255 42.033 24.8678V23.0546C42.033 23.0521 42.0334 23.0497 42.0334 23.0471C42.0334 23.0446 42.033 23.0421 42.033 23.0396V22.9821C42.4841 22.8817 42.9473 22.8302 43.4158 22.8302C46.9097 22.8302 49.7523 25.6629 49.7523 29.1447C49.7523 32.627 46.9097 35.4601 43.4158 35.4601C42.6055 35.4601 41.8243 35.3096 41.0851 35.017C41.3053 34.4491 41.4875 33.8663 41.6321 33.272ZM15.1358 23.7795H40.563V26.034C40.563 26.0348 40.563 26.0357 40.563 26.0365V29.9152C40.563 33.2994 39.2407 36.4813 36.84 38.8747C35.5099 40.1993 33.8808 41.2259 32.1231 41.8508H23.5777C23.3407 41.7667 23.1048 41.6762 22.8719 41.5773C23.4111 40.7324 23.6166 39.7924 23.4392 38.8965C23.439 38.8953 23.4389 38.8942 23.4387 38.893C23.4384 38.8917 23.4379 38.8903 23.4377 38.8889C23.2034 37.7234 22.377 36.7644 21.1101 36.1884C19.9233 35.6489 18.4729 35.5092 17.0258 35.7956C16.8942 35.8216 16.7637 35.8514 16.6344 35.8842C15.6533 34.0566 15.1358 32.0054 15.1358 29.9153V23.7795ZM15.3696 40.6904C16.05 39.676 16.4606 38.5384 16.5524 37.436C16.7989 37.3532 17.0525 37.2838 17.3123 37.2322C19.1824 36.8623 20.9855 37.423 21.7045 38.4898L16.9811 39.4255C16.5829 39.5044 16.3243 39.8898 16.4034 40.2866C16.473 40.6351 16.78 40.8763 17.1236 40.8763C17.171 40.8763 17.2193 40.8718 17.2676 40.8621L21.994 39.9258C21.8997 40.4076 21.6302 40.8906 21.1986 41.3344C21.1974 41.3355 21.1963 41.3368 21.1952 41.338C21.0152 41.522 20.8117 41.6934 20.59 41.8506H14.4102C14.7625 41.5044 15.0839 41.1166 15.3696 40.6904ZM37.871 48.5353H17.8279V47.2189H37.871V48.5353Z" fill="#FF4B32"/>
<path d="M29.7625 14.6436C29.7492 14.652 29.7384 14.6587 29.7305 14.6637C29.7379 14.659 29.7486 14.6522 29.7625 14.6436Z" fill="#FF4B32"/>
<path d="M29.7309 14.6635C29.7108 14.6761 29.7133 14.6745 29.7309 14.6635V14.6635Z" fill="#FF4B32"/>
<path d="M31.3539 7.99494C32.3436 7.05744 32.9137 5.75832 32.9137 4.36378C32.9137 2.62794 32.0319 1.03877 30.5549 0.1126C30.2114 -0.10283 29.7574 0.000100211 29.5414 0.342484C29.3252 0.684867 29.4285 1.13702 29.7721 1.35245C30.8189 2.0088 31.4438 3.13448 31.4438 4.36368C31.4438 5.59288 30.8189 6.71857 29.7721 7.37492C29.3228 7.65578 29.3228 8.33293 29.7721 8.61477C30.8189 9.27111 31.4438 10.3968 31.4438 11.626C31.4439 12.8553 30.819 13.9811 29.7722 14.6374C29.7684 14.6398 29.7659 14.6413 29.7626 14.6435C29.7657 14.6415 29.7688 14.6397 29.7722 14.6375C29.4286 14.853 29.3253 15.3051 29.5415 15.6475C29.6812 15.8688 29.92 15.99 30.1642 15.99C30.298 15.99 30.4334 15.9536 30.5549 15.8774C32.0319 14.9513 32.9137 13.362 32.9137 11.6263C32.9137 10.2316 32.3435 8.93244 31.3539 7.99494ZM30.1556 14.397C30.1729 14.3862 30.1751 14.3848 30.1556 14.397V14.397ZM30.0598 14.4572C30.0759 14.447 30.0908 14.4377 30.1042 14.4293C30.0914 14.4373 30.077 14.4464 30.0598 14.4572Z" fill="#FF4B32"/>
<path d="M35.7274 7.3752C35.3839 7.15977 34.93 7.2626 34.7139 7.60508C34.4977 7.94737 34.601 8.39961 34.9446 8.61504C35.9913 9.27139 36.6162 10.3972 36.6162 11.6264C36.6163 12.8554 35.9914 13.9812 34.9447 14.6375C34.6011 14.8529 34.4978 15.3051 34.714 15.6475C34.8536 15.8688 35.0925 15.99 35.3367 15.99C35.4704 15.99 35.6059 15.9535 35.7274 15.8774C37.2043 14.9513 38.0861 13.362 38.0861 11.6263C38.0861 9.89053 37.2043 8.30127 35.7274 7.3752Z" fill="#FF4B32"/>
<path d="M24.959 7.37505C24.6155 7.15962 24.1615 7.26255 23.9455 7.60494C23.7293 7.94732 23.8326 8.39947 24.1762 8.6149C25.223 9.27125 25.8479 10.3969 25.8479 11.6261C25.848 12.8553 25.2231 13.9811 24.1763 14.6375C23.8327 14.8529 23.7294 15.305 23.9456 15.6474C24.0853 15.8687 24.3241 15.9899 24.5683 15.9899C24.702 15.9899 24.8375 15.9535 24.959 15.8773C26.436 14.9512 27.3178 13.362 27.3178 11.6262C27.3178 9.89039 26.436 8.30123 24.959 7.37505Z" fill="#FF4B32"/>
</g>
<defs>
<filter id="filter0_d_112_409" x="-1" y="0" width="58.1742" height="58" filterUnits="userSpaceOnUse" color-interpolation-filters="sRGB">
<feFlood flood-opacity="0" result="BackgroundImageFix"/>
<feColorMatrix in="SourceAlpha" type="matrix" values="0 0 0 0 0 0 0 0 0 0 0 0 0 0 0 0 0 0 127 0" result="hardAlpha"/>
<feOffset dy="4"/>
<feGaussianBlur stdDeviation="2"/>
<feComposite in2="hardAlpha" operator="out"/>
<feColorMatrix type="matrix" values="0 0 0 0 0 0 0 0 0 0 0 0 0 0 0 0 0 0 0.25 0"/>
<feBlend mode="normal" in2="BackgroundImageFix" result="effect1_dropShadow_112_409"/>
<feBlend mode="normal" in="SourceGraphic" in2="effect1_dropShadow_112_409" result="shape"/>
</filter>
<clipPath id="clip0_112_409">
<rect width="50.1742" height="50" fill="white" transform="translate(3)"/>
</clipPath>
</defs>
</svg>
